<?xml version="1.0" standalone="no"?>
<!DOCTYPE svg PUBLIC "-//W3C//DTD SVG 20010904//EN"
 "http://www.w3.org/TR/2001/REC-SVG-20010904/DTD/svg10.dtd">
<svg version="1.0" xmlns="http://www.w3.org/2000/svg"
 width="500.000000pt" height="500.000000pt" viewBox="0 0 500.000000 500.000000"
 preserveAspectRatio="xMidYMid meet">
<metadata>
Created by potrace 1.14, written by Peter Selinger 2001-2017
</metadata>
<g transform="translate(0.000000,500.000000) scale(0.100000,-0.100000)"
fill="#000000" stroke="none">
<path d="M1596 3143 c-1 -1 -13 -5 -27 -7 -13 -2 -24 -5 -24 -6 0 -1 -9 -3
-20 -5 -43 -8 -131 -62 -182 -111 -52 -52 -104 -143 -119 -209 -8 -38 -9 -151
-2 -190 34 -180 198 -329 386 -350 26 -3 59 -8 74 -10 16 -2 30 0 33 5 2 4 19
6 37 5 18 -2 38 0 43 3 6 4 15 7 20 8 51 10 70 16 121 39 103 47 100 40 98
227 -1 90 -2 165 -3 168 0 3 -40 5 -88 5 l-88 -1 0 -127 0 -127 -40 -16 c-46
-19 -174 -26 -192 -11 -7 5 -13 6 -13 3 0 -4 -27 7 -59 24 -95 51 -139 134
-136 255 2 57 4 69 25 121 14 35 71 94 110 114 110 56 242 43 346 -36 l31 -23
57 58 58 58 -43 37 c-42 35 -112 75 -146 81 -10 2 -18 4 -18 6 0 7 -231 19
-239 12z"/>
<path d="M2428 3139 c-7 -4 -16 -5 -20 -3 -4 3 -14 2 -20 -3 -7 -4 -21 -9 -31
-10 -50 -8 -146 -83 -174 -136 -17 -34 -24 -137 -11 -183 9 -34 77 -102 127
-128 17 -9 31 -14 31 -10 0 4 6 2 13 -4 6 -5 28 -13 47 -18 50 -11 50 -11 53
-14 3 -2 21 -6 66 -14 19 -4 43 -12 55 -18 11 -6 21 -10 21 -9 0 2 13 -3 28
-10 16 -7 34 -24 42 -39 18 -35 -3 -83 -47 -106 -36 -19 -165 -27 -206 -12
-12 4 -33 10 -45 12 -35 6 -110 38 -129 53 -15 13 -19 8 -47 -50 -17 -36 -31
-69 -31 -73 1 -11 46 -45 63 -48 7 -1 21 -7 32 -13 11 -6 23 -11 28 -12 4 -1
8 -1 10 -2 1 0 9 -2 17 -4 8 -2 26 -7 40 -10 53 -14 180 -24 195 -16 6 3 24 6
40 8 33 2 40 3 105 23 31 10 63 33 104 73 32 32 56 61 53 64 -4 3 -1 15 5 27
14 25 18 115 6 122 -4 3 -6 9 -3 14 6 10 -52 87 -85 112 -22 16 -117 54 -162
64 -10 2 -28 7 -40 10 -13 3 -32 7 -43 9 -11 2 -20 4 -20 5 0 2 -37 11 -51 12
-6 1 -29 13 -49 27 -50 34 -54 76 -14 123 16 18 28 30 29 26 0 -3 19 0 43 6
23 7 56 12 72 10 68 -7 92 -11 104 -18 7 -4 15 -6 18 -2 3 3 28 -6 55 -20 50
-25 66 -24 72 7 1 8 10 31 19 53 9 21 17 45 17 53 0 21 -87 56 -175 68 -11 2
-20 4 -20 5 0 7 -177 5 -187 -1z"/>
<path d="M2999 3100 c-1 -3 -2 -182 -3 -397 -1 -264 2 -394 9 -396 9 -3 150
-1 166 2 3 0 5 43 5 94 -3 141 -8 133 87 131 45 -1 85 -2 89 -3 4 0 41 -50 83
-111 42 -60 79 -111 83 -111 20 -4 168 -5 174 -2 4 2 -31 58 -77 124 -82 116
-95 139 -76 139 27 0 144 129 141 155 -1 3 3 20 8 39 10 33 9 58 -3 126 -16
88 -113 178 -220 207 -26 7 -465 10 -466 3z m409 -139 c1 0 3 0 5 1 1 2 17 -8
35 -20 93 -67 84 -206 -16 -250 -39 -17 -228 -25 -247 -11 -7 5 -10 61 -9 146
1 76 2 138 3 138 5 1 227 -3 229 -4z"/>
</g>
</svg>
